<?xml version="1.0" standalone="no"?>
<!DOCTYPE svg PUBLIC "-//W3C//DTD SVG 20010904//EN"
 "http://www.w3.org/TR/2001/REC-SVG-20010904/DTD/svg10.dtd">
<svg version="1.0" xmlns="http://www.w3.org/2000/svg"
 width="328.000000pt" height="360.000000pt" viewBox="0 0 328.000000 360.000000"
 preserveAspectRatio="xMidYMid meet">
<metadata>
Created by potrace 1.15, written by Peter Selinger 2001-2017
</metadata>
<g transform="translate(0.000000,360.000000) scale(0.100000,-0.100000)"
fill="#000000" stroke="none">
<path d="M1486 3517 l-129 -81 -128 -172 -128 -173 -116 -366 -117 -367 56
-880 c30 -484 57 -883 60 -885 9 -9 621 -133 656 -133 47 0 673 101 684 111 4
4 26 408 47 898 l39 890 -115 362 c-64 199 -119 367 -122 373 -4 6 -59 85
-124 177 l-117 165 -137 82 c-75 45 -146 82 -158 81 -12 0 -80 -37 -151 -82z
m294 -26 l131 -78 114 -162 c63 -88 118 -169 123 -179 6 -9 60 -176 122 -371
l112 -355 -6 -140 c-4 -78 -9 -179 -11 -226 -3 -47 -12 -256 -20 -465 -8 -209
-17 -414 -20 -455 -2 -41 -7 -154 -11 -250 -6 -167 -9 -209 -17 -216 -1 -2
-151 -27 -331 -57 l-328 -54 -132 27 c-72 15 -212 44 -311 65 -99 20 -183 39
-186 41 -4 2 -7 36 -8 76 -1 40 -4 89 -6 108 -1 19 -6 87 -9 150 -4 63 -9 138
-11 165 -3 28 -9 131 -15 230 -10 176 -15 255 -25 413 -12 181 -25 384 -31
487 l-6 110 115 361 116 362 125 168 125 167 123 78 c68 43 128 78 135 78 6 1
71 -34 143 -78z"/>
<path d="M1504 2961 l-100 -48 -62 -134 -62 -134 22 -148 22 -148 95 -100 96
-99 130 -1 130 -1 43 48 c123 137 139 160 145 210 4 27 13 91 21 143 l14 94
-62 136 -62 136 -110 47 c-60 26 -120 47 -134 47 -14 0 -70 -22 -126 -48z
m237 -22 c52 -22 99 -46 106 -52 6 -7 37 -66 67 -132 l55 -120 -21 -135 -21
-135 -86 -97 -86 -98 -111 0 -111 0 -91 98 -90 98 -21 134 -22 135 59 128 59
129 94 43 c52 24 101 44 110 44 8 1 58 -17 110 -40z"/>
<path d="M576 1902 c-2 -4 -19 -199 -36 -432 -18 -234 -34 -427 -36 -429 -2
-2 -107 33 -233 78 -126 44 -237 81 -246 81 -9 0 -15 -6 -13 -14 2 -8 86 -107
187 -221 101 -114 195 -220 207 -235 l24 -28 -88 -27 c-175 -54 -298 -130
-329 -202 -44 -107 21 -201 189 -271 173 -72 218 -80 808 -143 305 -32 589
-59 630 -59 103 0 1117 105 1210 126 175 39 337 111 395 176 33 36 35 42 35
109 l0 70 -48 48 c-56 56 -154 106 -285 146 -78 24 -86 29 -75 44 7 9 100 116
205 238 106 123 193 227 193 233 0 19 -35 10 -262 -71 -126 -45 -231 -80 -233
-77 -2 2 -19 197 -37 433 -27 358 -35 430 -48 430 -12 0 -39 -147 -135 -732
-66 -402 -123 -734 -126 -737 -3 -3 -179 -30 -390 -59 l-384 -54 -389 48
c-214 26 -392 52 -396 56 -4 4 -64 332 -134 728 -70 396 -130 728 -132 738 -6
18 -19 23 -28 9z m53 -312 c17 -96 42 -238 56 -315 128 -721 155 -869 162
-876 4 -4 107 -19 228 -34 121 -14 301 -36 401 -49 164 -21 189 -22 270 -10
99 14 442 63 489 69 17 2 71 9 120 15 50 7 93 15 98 19 7 7 21 88 158 919 40
243 73 441 75 440 2 -3 19 -216 29 -373 4 -49 8 -106 10 -125 2 -19 7 -84 11
-145 3 -60 10 -114 14 -118 4 -5 105 26 224 68 119 43 219 76 221 74 2 -2 -84
-105 -191 -228 -107 -123 -194 -227 -194 -230 0 -4 37 -18 83 -31 170 -49 303
-118 342 -177 44 -67 24 -144 -52 -196 -103 -71 -317 -139 -498 -157 -60 -6
-168 -17 -240 -25 -71 -8 -159 -17 -195 -20 -36 -3 -81 -8 -100 -10 -19 -3
-143 -16 -274 -30 -228 -23 -245 -24 -365 -10 -69 8 -283 31 -476 50 -192 20
-402 42 -465 50 -241 30 -480 128 -525 215 -43 83 6 165 140 232 51 26 204 80
263 93 17 3 32 10 32 14 0 4 -90 108 -199 231 -110 124 -198 226 -196 228 2 2
101 -31 220 -73 119 -42 219 -74 222 -71 3 3 10 52 14 108 4 57 11 139 14 183
3 44 8 105 10 135 2 30 7 89 10 130 10 142 17 211 20 208 2 -2 17 -82 34 -178z"/>
</g>
</svg>
