<?xml version="1.0" standalone="no"?>
<!DOCTYPE svg PUBLIC "-//W3C//DTD SVG 20010904//EN"
 "http://www.w3.org/TR/2001/REC-SVG-20010904/DTD/svg10.dtd">
<svg version="1.0" xmlns="http://www.w3.org/2000/svg"
 width="236.000000pt" height="222.000000pt" viewBox="0 0 236.000000 222.000000"
 preserveAspectRatio="xMidYMid meet">
<metadata>
Created by potrace 1.15, written by Peter Selinger 2001-2017
</metadata>
<g transform="translate(0.000000,222.000000) scale(0.100000,-0.100000)"
fill="#000000" stroke="none">
<path d="M1710 2210 c-25 -4 -60 -12 -78 -18 -35 -12 -183 -82 -192 -92 -7 -7
-40 -27 -67 -42 -13 -6 -23 -16 -23 -21 0 -5 -12 -24 -27 -41 -16 -17 -40 -47
-55 -66 -163 -210 -241 -308 -256 -325 -16 -20 -293 -236 -345 -269 -13 -9
-30 -33 -40 -53 -15 -35 -94 -252 -120 -331 -7 -22 -34 -51 -81 -89 -90 -72
-210 -176 -214 -185 -2 -5 -8 -8 -13 -8 -10 0 -41 -26 -98 -80 -32 -30 -41
-49 -64 -140 -31 -124 -42 -250 -21 -250 8 0 24 17 38 38 13 20 40 52 61 71
34 31 40 33 59 21 41 -27 95 -50 115 -50 11 0 23 -4 26 -10 10 -16 55 -12 62
6 8 21 -13 58 -59 102 -21 20 -38 40 -38 43 0 4 12 10 27 13 16 4 35 9 44 12
9 2 23 -1 30 -8 35 -33 148 -53 163 -29 3 5 -15 32 -40 60 l-46 51 46 0 c25 0
46 3 46 8 0 8 48 32 66 32 7 0 14 4 16 8 3 7 63 43 151 89 16 8 48 42 73 76
49 68 67 78 174 96 41 7 83 17 92 22 10 5 30 9 44 9 l27 0 -6 -77 c-8 -113
-25 -224 -36 -237 -5 -6 -27 -18 -48 -25 -38 -14 -100 -53 -138 -88 -25 -22
-88 -71 -133 -102 -31 -22 -37 -23 -75 -11 -23 8 -46 17 -52 22 -5 4 -17 8
-27 8 -21 0 -21 -29 1 -68 16 -30 7 -57 -17 -47 -20 9 -105 25 -146 28 -39 3
-42 -12 -12 -56 l25 -37 -44 0 c-84 0 -52 -46 75 -107 111 -54 165 -64 345
-61 187 3 209 12 128 50 -26 12 -49 26 -51 30 -2 4 -8 8 -14 8 -15 0 -49 41
-45 54 2 5 16 13 31 17 46 13 167 79 273 150 95 64 107 69 156 69 72 0 153 16
267 52 52 16 101 32 108 34 22 6 4 24 -53 50 -95 45 -145 107 -126 158 6 15
11 54 11 86 0 53 -3 60 -33 87 -45 40 -37 53 30 53 42 0 67 -6 99 -25 43 -25
68 -65 148 -233 11 -23 27 -42 35 -42 16 0 41 42 41 67 0 7 4 13 8 13 16 0 33
89 33 167 0 83 -11 122 -44 160 -29 33 -18 45 23 25 79 -38 142 -118 166 -209
6 -24 34 -1 44 35 25 93 -1 248 -57 333 -22 33 -99 79 -132 79 -7 0 -11 6 -8
13 4 13 109 15 162 3 59 -14 118 -51 161 -100 l44 -51 0 62 c0 34 -4 64 -9 67
-4 3 -11 19 -14 35 -13 62 -119 196 -182 228 -11 6 -60 14 -109 18 l-88 7 56
54 c31 30 65 54 76 54 11 0 20 5 20 10 0 6 9 10 19 10 11 0 23 5 26 10 9 14
162 13 202 -2 23 -8 36 -9 43 -2 18 18 -94 115 -175 153 -72 33 -98 39 -213
48 l-72 5 -70 -51 c-39 -28 -73 -51 -76 -51 -3 0 -12 -7 -20 -15 -34 -33 -44
-8 -34 80 17 140 111 262 244 316 22 9 42 21 43 26 7 20 -171 29 -267 13z
m203 -17 c-13 -2 -23 -7 -23 -11 0 -4 -14 -13 -31 -21 -65 -29 -171 -166 -186
-241 -12 -61 -21 -149 -17 -166 5 -20 11 -21 81 -12 7 1 10 5 7 9 -2 4 5 13
18 20 12 6 31 20 41 30 11 10 23 16 27 14 4 -2 18 7 30 20 21 22 32 25 101 25
78 0 112 -6 105 -19 -3 -4 11 -5 31 -3 25 3 34 1 29 -7 -4 -6 0 -11 9 -11 9 0
14 -3 12 -7 -3 -5 9 -9 26 -9 16 -1 36 -9 42 -17 7 -9 16 -13 20 -9 5 4 5 -1
2 -11 -4 -11 -3 -16 3 -12 5 3 18 2 27 -3 13 -8 3 -12 -42 -16 -83 -9 -175
-27 -180 -36 -3 -4 -17 -5 -32 -2 l-28 6 25 7 25 7 -27 1 c-34 1 -37 -16 -5
-29 12 -5 16 -9 10 -9 -14 -1 -46 -25 -71 -53 -9 -9 -20 -14 -25 -11 -5 3 -3
9 4 14 10 6 8 9 -8 9 -15 0 -21 -5 -17 -14 3 -8 -2 -35 -11 -61 -8 -26 -13
-56 -10 -66 4 -11 2 -19 -3 -19 -5 0 -12 9 -15 20 -3 11 -11 20 -17 20 -7 0
-10 -8 -7 -20 5 -20 0 -20 -401 -20 l-407 0 -2 28 c-1 16 -3 35 -5 42 -2 8 2
14 9 15 6 0 15 3 19 7 4 4 13 3 20 -3 16 -13 27 19 19 53 -5 18 0 31 19 49 14
13 26 28 26 32 0 8 51 76 78 106 8 8 24 30 37 50 13 20 36 50 52 67 42 47 81
93 85 102 5 11 89 66 126 83 17 7 32 17 32 21 0 5 9 8 19 8 11 0 23 5 26 10 3
6 17 10 31 10 13 0 24 5 24 10 0 6 12 10 28 10 15 0 34 5 42 10 8 5 62 9 120
8 58 0 95 -3 83 -5z m-943 -917 c0 -85 -11 -146 -26 -146 -8 0 -14 -4 -14 -9
0 -5 -13 -14 -30 -21 -16 -7 -30 -16 -30 -21 0 -5 -5 -9 -11 -9 -20 0 -118
-75 -131 -100 -27 -52 -38 -55 -38 -11 0 60 32 120 101 187 33 32 79 84 102
114 73 96 77 97 77 16z"/>
</g>
</svg>
